<mxfile host="Electron" modified="2023-11-26T06:27:55.635Z" agent="Mozilla/5.0 (Windows NT 10.0; Win64; x64) AppleWebKit/537.36 (KHTML, like Gecko) draw.io/22.1.2 Chrome/114.0.5735.289 Electron/25.9.4 Safari/537.36" etag="oyjwK5tUPvFJbaOPebAc" version="22.1.2" type="device">
  <diagram id="C5RBs43oDa-KdzZeNtuy" name="Page-1">
    <mxGraphModel dx="1434" dy="836" grid="1" gridSize="10" guides="1" tooltips="1" connect="1" arrows="1" fold="1" page="1" pageScale="1" pageWidth="827" pageHeight="1169" math="0" shadow="0">
      <root>
        <mxCell id="WIyWlLk6GJQsqaUBKTNV-0" />
        <mxCell id="WIyWlLk6GJQsqaUBKTNV-1" parent="WIyWlLk6GJQsqaUBKTNV-0" />
        <mxCell id="zkfFHV4jXpPFQw0GAbJ--0" value="Activity" style="swimlane;fontStyle=2;align=center;verticalAlign=top;childLayout=stackLayout;horizontal=1;startSize=26;horizontalStack=0;resizeParent=1;resizeLast=0;collapsible=1;marginBottom=0;rounded=0;shadow=0;strokeWidth=1;" parent="WIyWlLk6GJQsqaUBKTNV-1" vertex="1">
          <mxGeometry x="10" y="30" width="460" height="150" as="geometry">
            <mxRectangle x="230" y="140" width="160" height="26" as="alternateBounds" />
          </mxGeometry>
        </mxCell>
        <mxCell id="ss4qTAcWnYkjv6NpqSfo-0" value="Responsibilities: Manage common attributes of activities." style="whiteSpace=wrap;html=1;" parent="zkfFHV4jXpPFQw0GAbJ--0" vertex="1">
          <mxGeometry y="26" width="460" height="34" as="geometry" />
        </mxCell>
        <mxCell id="ss4qTAcWnYkjv6NpqSfo-1" value="Methods: getDistance, getSpeed, getPace, getSummary." style="whiteSpace=wrap;html=1;" parent="zkfFHV4jXpPFQw0GAbJ--0" vertex="1">
          <mxGeometry y="60" width="460" height="30" as="geometry" />
        </mxCell>
        <mxCell id="ss4qTAcWnYkjv6NpqSfo-2" value="Variables: date, duration." style="whiteSpace=wrap;html=1;" parent="zkfFHV4jXpPFQw0GAbJ--0" vertex="1">
          <mxGeometry y="90" width="460" height="40" as="geometry" />
        </mxCell>
        <mxCell id="jD1h23rMRsE7lyYoc8XD-7" style="edgeStyle=orthogonalEdgeStyle;rounded=0;orthogonalLoop=1;jettySize=auto;html=1;exitX=0.5;exitY=0;exitDx=0;exitDy=0;entryX=0.25;entryY=1;entryDx=0;entryDy=0;endArrow=block;endFill=1;endSize=10;" edge="1" parent="WIyWlLk6GJQsqaUBKTNV-1" source="zkfFHV4jXpPFQw0GAbJ--6" target="zkfFHV4jXpPFQw0GAbJ--0">
          <mxGeometry relative="1" as="geometry" />
        </mxCell>
        <mxCell id="zkfFHV4jXpPFQw0GAbJ--6" value="Running" style="swimlane;fontStyle=0;align=center;verticalAlign=top;childLayout=stackLayout;horizontal=1;startSize=26;horizontalStack=0;resizeParent=1;resizeLast=0;collapsible=1;marginBottom=0;rounded=0;shadow=0;strokeWidth=1;" parent="WIyWlLk6GJQsqaUBKTNV-1" vertex="1">
          <mxGeometry y="260" width="260" height="206" as="geometry">
            <mxRectangle x="130" y="380" width="160" height="26" as="alternateBounds" />
          </mxGeometry>
        </mxCell>
        <mxCell id="jD1h23rMRsE7lyYoc8XD-11" value="Responsibilities: Manage Running activities." style="whiteSpace=wrap;html=1;" vertex="1" parent="zkfFHV4jXpPFQw0GAbJ--6">
          <mxGeometry y="26" width="260" height="60" as="geometry" />
        </mxCell>
        <mxCell id="jD1h23rMRsE7lyYoc8XD-16" value="Methods:&amp;nbsp;getDistance" style="whiteSpace=wrap;html=1;" vertex="1" parent="zkfFHV4jXpPFQw0GAbJ--6">
          <mxGeometry y="86" width="260" height="60" as="geometry" />
        </mxCell>
        <mxCell id="jD1h23rMRsE7lyYoc8XD-17" value="Variables: Distance" style="whiteSpace=wrap;html=1;" vertex="1" parent="zkfFHV4jXpPFQw0GAbJ--6">
          <mxGeometry y="146" width="260" height="60" as="geometry" />
        </mxCell>
        <mxCell id="zkfFHV4jXpPFQw0GAbJ--17" value="Program" style="swimlane;fontStyle=0;align=center;verticalAlign=top;childLayout=stackLayout;horizontal=1;startSize=26;horizontalStack=0;resizeParent=1;resizeLast=0;collapsible=1;marginBottom=0;rounded=0;shadow=0;strokeWidth=1;" parent="WIyWlLk6GJQsqaUBKTNV-1" vertex="1">
          <mxGeometry x="490" y="30" width="320" height="160" as="geometry">
            <mxRectangle x="550" y="140" width="160" height="26" as="alternateBounds" />
          </mxGeometry>
        </mxCell>
        <mxCell id="jD1h23rMRsE7lyYoc8XD-1" value="&lt;div&gt;Responsibilities: i&lt;span style=&quot;background-color: initial;&quot;&gt;terates through the list, calling getSummary on each activity instance to display activity summaries.&lt;/span&gt;&lt;/div&gt;&lt;div&gt;&amp;nbsp; &amp;nbsp; Polymorphism is demonstrated as each activity type calculates its specific metrics differently.&lt;/div&gt;" style="whiteSpace=wrap;html=1;" vertex="1" parent="zkfFHV4jXpPFQw0GAbJ--17">
          <mxGeometry y="26" width="320" height="134" as="geometry" />
        </mxCell>
        <mxCell id="jD1h23rMRsE7lyYoc8XD-8" style="edgeStyle=orthogonalEdgeStyle;rounded=0;orthogonalLoop=1;jettySize=auto;html=1;exitX=0.5;exitY=0;exitDx=0;exitDy=0;entryX=0.5;entryY=1;entryDx=0;entryDy=0;endArrow=block;endFill=1;endSize=10;" edge="1" parent="WIyWlLk6GJQsqaUBKTNV-1" source="jD1h23rMRsE7lyYoc8XD-5" target="zkfFHV4jXpPFQw0GAbJ--0">
          <mxGeometry relative="1" as="geometry">
            <Array as="points">
              <mxPoint x="410" y="230" />
              <mxPoint x="240" y="230" />
            </Array>
          </mxGeometry>
        </mxCell>
        <mxCell id="jD1h23rMRsE7lyYoc8XD-5" value="Cycling" style="swimlane;fontStyle=0;align=center;verticalAlign=top;childLayout=stackLayout;horizontal=1;startSize=26;horizontalStack=0;resizeParent=1;resizeLast=0;collapsible=1;marginBottom=0;rounded=0;shadow=0;strokeWidth=1;" vertex="1" parent="WIyWlLk6GJQsqaUBKTNV-1">
          <mxGeometry x="280" y="260" width="260" height="206" as="geometry">
            <mxRectangle x="130" y="380" width="160" height="26" as="alternateBounds" />
          </mxGeometry>
        </mxCell>
        <mxCell id="jD1h23rMRsE7lyYoc8XD-12" value="Responsibilities: Manage Cycling activities." style="whiteSpace=wrap;html=1;" vertex="1" parent="jD1h23rMRsE7lyYoc8XD-5">
          <mxGeometry y="26" width="260" height="60" as="geometry" />
        </mxCell>
        <mxCell id="jD1h23rMRsE7lyYoc8XD-19" value="Methods:&amp;nbsp;getSpeed" style="whiteSpace=wrap;html=1;" vertex="1" parent="jD1h23rMRsE7lyYoc8XD-5">
          <mxGeometry y="86" width="260" height="60" as="geometry" />
        </mxCell>
        <mxCell id="jD1h23rMRsE7lyYoc8XD-15" value="Variables: Speed" style="whiteSpace=wrap;html=1;" vertex="1" parent="jD1h23rMRsE7lyYoc8XD-5">
          <mxGeometry y="146" width="260" height="60" as="geometry" />
        </mxCell>
        <mxCell id="jD1h23rMRsE7lyYoc8XD-9" style="edgeStyle=orthogonalEdgeStyle;rounded=0;orthogonalLoop=1;jettySize=auto;html=1;exitX=0.5;exitY=0;exitDx=0;exitDy=0;entryX=0.75;entryY=1;entryDx=0;entryDy=0;endArrow=block;endFill=1;endSize=10;" edge="1" parent="WIyWlLk6GJQsqaUBKTNV-1" source="jD1h23rMRsE7lyYoc8XD-6" target="zkfFHV4jXpPFQw0GAbJ--0">
          <mxGeometry relative="1" as="geometry">
            <Array as="points">
              <mxPoint x="680" y="210" />
              <mxPoint x="355" y="210" />
            </Array>
          </mxGeometry>
        </mxCell>
        <mxCell id="jD1h23rMRsE7lyYoc8XD-6" value="Swimming" style="swimlane;fontStyle=0;align=center;verticalAlign=top;childLayout=stackLayout;horizontal=1;startSize=26;horizontalStack=0;resizeParent=1;resizeLast=0;collapsible=1;marginBottom=0;rounded=0;shadow=0;strokeWidth=1;" vertex="1" parent="WIyWlLk6GJQsqaUBKTNV-1">
          <mxGeometry x="550" y="260" width="260" height="206" as="geometry">
            <mxRectangle x="130" y="380" width="160" height="26" as="alternateBounds" />
          </mxGeometry>
        </mxCell>
        <mxCell id="jD1h23rMRsE7lyYoc8XD-10" value="Responsibilities: Manage Swimming activities." style="whiteSpace=wrap;html=1;" vertex="1" parent="jD1h23rMRsE7lyYoc8XD-6">
          <mxGeometry y="26" width="260" height="60" as="geometry" />
        </mxCell>
        <mxCell id="jD1h23rMRsE7lyYoc8XD-18" value="Methods:&amp;nbsp;getDistance" style="whiteSpace=wrap;html=1;" vertex="1" parent="jD1h23rMRsE7lyYoc8XD-6">
          <mxGeometry y="86" width="260" height="60" as="geometry" />
        </mxCell>
        <mxCell id="jD1h23rMRsE7lyYoc8XD-14" value="Variables: Pace" style="whiteSpace=wrap;html=1;" vertex="1" parent="jD1h23rMRsE7lyYoc8XD-6">
          <mxGeometry y="146" width="260" height="60" as="geometry" />
        </mxCell>
      </root>
    </mxGraphModel>
  </diagram>
</mxfile>
